<svg width="70" height="70" viewBox="0 0 70 70" fill="none" xmlns="http://www.w3.org/2000/svg">
<rect width="70" height="70" rx="13" fill="#190088"/>
<path d="M37.7128 40.7619C37.4683 40.4968 37.1824 40.2778 36.8551 40.1125C36.5278 40.4468 36.2495 40.662 36.0238 40.7619C35.7943 40.8619 35.5159 40.9118 35.1924 40.9118C34.7674 40.9118 34.2934 40.6121 33.7705 40.0088C33.2476 39.4093 32.7097 38.4063 32.1529 37.0037C31.4984 35.2705 30.904 33.8564 30.3661 32.7727C29.8282 31.689 29.294 30.736 28.7749 29.9175C28.5003 29.4909 28.1994 29.0567 27.8721 28.6147C30.0012 28.2151 31.7655 27.6233 33.1611 26.8393C34.583 26.04 35.7003 25.0524 36.5166 23.8842C37.3329 22.716 37.8708 21.3979 38.1341 19.9299C38.5253 17.8625 38.3561 16.1409 37.6187 14.7728C36.8852 13.4048 35.7492 12.371 34.2144 11.6678C32.6796 10.9684 30.8815 10.6149 28.8238 10.6149C28.1053 10.6149 27.0859 10.6418 25.7618 10.6917C24.4376 10.7417 23.1549 10.7686 21.9135 10.7686C20.7699 10.7686 19.7392 10.7609 18.8251 10.7417C17.911 10.7263 16.8464 10.684 15.6389 10.6149C15.6051 10.9838 15.59 11.3412 15.59 11.6909C15.59 12.0406 15.6201 12.4018 15.6878 12.7669C16.6019 12.8668 17.3054 13.0512 17.7944 13.3164C18.2834 13.5854 18.5956 14.0004 18.7273 14.5692C18.859 15.1379 18.8402 15.9065 18.6784 16.871L15.101 37.9989C14.9054 39.1018 14.6834 39.9703 14.4389 40.6005C14.1944 41.2346 13.8258 41.7034 13.3367 42.0032C12.8477 42.3029 12.1292 42.5028 11.1813 42.6027C11.0496 42.937 10.9518 43.2867 10.8878 43.6556C10.8201 44.0245 10.79 44.3896 10.79 44.7585C11.738 44.6932 12.6371 44.6509 13.4872 44.6317C14.3374 44.6163 15.3154 44.6086 16.4289 44.6086H18.3173C18.8552 44.6086 19.4195 44.6163 20.0063 44.6317C20.5931 44.6471 21.2966 44.6893 22.1129 44.7585C22.143 44.3934 22.1542 44.0245 22.1354 43.6556C22.1204 43.2867 22.079 42.937 22.0113 42.6027C21.2289 42.4682 20.6232 42.3029 20.1981 42.1031C19.7731 41.9033 19.5286 41.5267 19.4646 40.9771C19.3969 40.4276 19.4496 39.6014 19.6113 38.4985L21.1461 29.3026C21.4884 29.3295 21.8759 29.3487 22.3047 29.3602C22.711 29.3718 23.1398 29.3679 23.5875 29.3487C23.9185 29.8752 24.2345 30.4017 24.5354 30.9358C25.1411 32.0041 25.7016 33.1723 26.2282 34.4405C26.7511 35.7086 27.2589 37.1612 27.7479 38.7944C28.1392 40.0971 28.5304 41.2154 28.9254 42.1492C29.3166 43.083 29.8056 43.8016 30.3962 44.3012C30.9868 44.8008 31.7354 45.0506 32.6495 45.0506C33.857 45.0506 34.8953 44.7585 35.7605 44.1744C36.6257 43.5903 37.4833 42.7641 38.3335 41.6958C38.168 41.3307 37.9648 41.0117 37.7203 40.7427L37.7128 40.7619ZM21.5336 26.9431L23.8245 13.2242C24.3624 13.0858 24.953 12.9744 25.6075 12.9014C26.3411 12.8168 26.9881 12.7745 27.5448 12.7745C29.5686 12.7745 31.1486 13.3856 32.2733 14.6037C33.4018 15.8219 33.7178 17.7011 33.2288 20.2373C32.9655 21.6054 32.4351 22.8005 31.6376 23.815C30.8363 24.8334 29.768 25.625 28.4288 26.1937C27.0896 26.7625 25.4571 27.043 23.5273 27.043C23.1662 27.043 22.7937 27.0353 22.3988 27.0161C22.1279 27.0046 21.8383 26.9777 21.5373 26.9431H21.5336Z" fill="#EFE6D3"/>
<path d="M58.7017 51.6855C58.2749 51.5188 57.7988 51.3986 57.2737 51.3327C56.7486 51.2669 56.2575 51.2475 55.7966 51.2824C55.6644 52.325 55.4755 53.0925 55.2299 53.5809C54.9844 54.0693 54.599 54.3871 54.0739 54.5422C53.5488 54.6934 52.7933 54.7709 51.811 54.7709H43.2241C43.8134 53.984 44.4481 53.201 45.1394 52.4219C46.1405 51.294 47.1643 50.1583 48.2146 49.0148C49.7559 47.3674 51.2179 45.7085 52.593 44.0417C53.9719 42.375 55.109 40.7005 56.0119 39.0182C56.9148 37.336 57.3644 35.6537 57.3644 33.9676C57.3644 31.3086 56.5295 29.2387 54.8559 27.758C53.1824 26.2773 50.8024 25.537 47.7197 25.537C45.9479 25.537 44.2667 25.723 42.6763 26.0913C41.0858 26.4634 39.552 27.0836 38.0749 27.9596C38.2374 29.072 38.328 30.2077 38.3469 31.3667C38.362 32.5296 38.3054 33.6653 38.1731 34.7738C39.0572 35.0762 40.0923 35.2274 41.2747 35.2274C41.4712 33.611 41.7847 32.3086 42.2116 31.3124C42.6385 30.3202 43.2127 29.5798 43.9343 29.0914C44.6559 28.603 45.5248 28.3588 46.5448 28.3588C48.0521 28.3588 49.2912 28.9635 50.2621 30.1767C51.2292 31.39 51.7128 33.0063 51.7128 35.0258C51.7128 36.5763 51.4332 38.0221 50.8779 39.3671C50.3188 40.7121 49.4348 42.1618 48.2183 43.7084C46.5788 45.8984 44.7654 48.1698 42.7783 50.5265C40.7912 52.8832 38.9325 55.205 37.1909 57.4958C37.1909 57.9997 37.2476 58.4571 37.3647 58.8602C37.478 59.2633 37.6669 59.6355 37.9314 59.9727C39.7674 59.9378 41.679 59.9145 43.6661 59.8952C45.6494 59.8797 47.6101 59.8719 49.5481 59.8719C50.7948 59.8719 52.0981 59.8874 53.4619 59.9223C54.8219 59.9572 56.0611 59.9727 57.1793 59.9727C57.5382 59.9727 57.8933 59.8641 58.2371 59.6432C58.5809 59.4261 58.834 59.0967 59.0002 58.6587C58.8037 57.7827 58.6791 56.8252 58.63 55.7787C58.5809 54.736 58.6035 53.3716 58.7055 51.6894L58.7017 51.6855Z" fill="#EFE6D3"/>
</svg>
